<svg xmlns="http://www.w3.org/2000/svg" viewBox="0 0 500 500"><defs><style>.a{fill:#f8255a;}</style></defs><circle class="a" cx="69.6" cy="431.58" r="14.09"/><circle class="a" cx="72.64" cy="286.83" r="14.09"/><circle class="a" cx="72.64" cy="359.2" r="14.09"/><circle class="a" cx="144.46" cy="359.2" r="14.09"/><circle class="a" cx="216.29" cy="359.2" r="14.09"/><circle class="a" cx="288.11" cy="359.2" r="14.09"/><circle class="a" cx="359.93" cy="359.2" r="14.09"/><circle class="a" cx="431.76" cy="359.2" r="14.09"/><circle class="a" cx="431.76" cy="431.58" r="14.09"/><circle class="a" cx="359.93" cy="431.58" r="14.09"/><circle class="a" cx="288.11" cy="431.58" r="14.09"/><circle class="a" cx="216.29" cy="431.58" r="14.09"/><circle class="a" cx="144.46" cy="431.58" r="14.09"/><circle class="a" cx="144.46" cy="216.66" r="14.09"/><circle class="a" cx="216.29" cy="216.66" r="14.09"/><circle class="a" cx="288.11" cy="214.45" r="14.09"/><circle class="a" cx="359.93" cy="214.45" r="14.09"/><circle class="a" cx="431.76" cy="214.45" r="14.09"/><circle class="a" cx="431.76" cy="286.83" r="14.09"/><circle class="a" cx="359.93" cy="286.83" r="14.09"/><circle class="a" cx="288.11" cy="286.83" r="14.09"/><circle class="a" cx="216.29" cy="286.83" r="14.09"/><circle class="a" cx="144.46" cy="286.83" r="14.09"/><circle class="a" cx="431.76" cy="69.7" r="14.09"/><circle class="a" cx="431.76" cy="144.84" r="14.09"/><circle class="a" cx="359.93" cy="144.84" r="14.09"/><circle class="a" cx="288.11" cy="144.84" r="14.09"/><circle class="a" cx="216.29" cy="142.08" r="14.09"/><circle class="a" cx="146.12" cy="142.08" r="14.09"/><circle class="a" cx="72.64" cy="142.08" r="14.09"/><circle class="a" cx="72.64" cy="214.45" r="14.09"/><circle class="a" cx="72.64" cy="72.46" r="14.09"/><circle class="a" cx="141.7" cy="72.46" r="14.09"/><circle class="a" cx="216.29" cy="69.7" r="14.09"/><circle class="a" cx="288.11" cy="72.46" r="14.09"/><circle class="a" cx="359.93" cy="72.46" r="14.09"/></svg>